<?xml version="1.0" standalone="no"?>
<!DOCTYPE svg PUBLIC "-//W3C//DTD SVG 20010904//EN"
 "http://www.w3.org/TR/2001/REC-SVG-20010904/DTD/svg10.dtd">
<svg version="1.0" xmlns="http://www.w3.org/2000/svg"
 width="700.000000pt" height="700.000000pt" viewBox="0 0 700.000000 700.000000"
 preserveAspectRatio="xMidYMid meet">
<metadata>
Created by potrace 1.11, written by Peter Selinger 2001-2013
</metadata>
<g transform="translate(0.000000,700.000000) scale(0.100000,-0.100000)"
fill="#000000" stroke="none">
<path d="M435 6990 c-158 -32 -305 -143 -375 -283 -65 -131 -61 110 -58 -3242
l3 -3040 23 -59 c63 -167 172 -273 352 -343 43 -17 214 -18 3088 -21 3363 -2
3105 -7 3242 61 86 43 187 144 228 228 66 134 61 -126 59 3229 l-2 3055 -27
69 c-60 155 -173 268 -323 323 -22 8 -49 18 -60 21 -29 10 -6102 11 -6150 2z"/>
</g>
</svg>
